<?xml version="1.0" standalone="no"?>
<!DOCTYPE svg PUBLIC "-//W3C//DTD SVG 20010904//EN"
 "http://www.w3.org/TR/2001/REC-SVG-20010904/DTD/svg10.dtd">
<svg version="1.0" xmlns="http://www.w3.org/2000/svg"
 width="320.000000pt" height="320.000000pt" viewBox="0 0 320.000000 320.000000"
 preserveAspectRatio="xMidYMid meet">
<metadata>
Created by potrace 1.14, written by Peter Selinger 2001-2017
</metadata>
<g transform="translate(0.000000,320.000000) scale(0.100000,-0.100000)"
fill="#000000" stroke="none">
<path d="M1355 3004 c-117 -24 -183 -42 -220 -59 -16 -7 -56 -25 -88 -39 -91
-40 -195 -114 -279 -199 -43 -44 -78 -83 -78 -87 0 -5 -6 -15 -12 -22 -16 -17
-33 -44 -53 -84 -15 -29 -19 -32 -55 -27 -67 9 -116 -32 -174 -149 -42 -86
-55 -91 -226 -93 -80 -1 -151 -3 -157 -4 -9 -1 -13 -21 -13 -62 0 -51 4 -64
23 -79 l22 -18 2 -633 c3 -698 0 -666 66 -694 20 -8 37 -26 46 -47 33 -77 75
-100 194 -103 76 -2 91 -5 112 -25 13 -12 24 -25 23 -29 -4 -40 38 -96 79
-104 18 -4 40 2 62 14 31 18 35 19 58 4 13 -9 36 -28 51 -44 94 -96 311 -209
489 -255 183 -47 416 -53 578 -16 28 7 61 14 75 16 43 8 142 45 210 79 82 40
153 78 160 85 3 3 28 23 55 45 28 21 62 52 78 67 30 31 52 35 81 13 45 -34
108 -3 133 65 27 75 38 81 143 85 118 4 151 21 186 91 14 28 36 57 51 65 14 7
29 23 33 34 4 11 8 288 8 615 1 327 1 609 2 626 0 19 9 41 24 55 45 46 66 89
54 115 -16 34 -35 37 -199 39 -119 2 -150 5 -172 19 -24 17 -57 67 -57 88 0 5
-5 14 -10 21 -6 7 -20 27 -33 46 -29 45 -80 73 -126 69 -35 -3 -37 -1 -73 60
-48 81 -91 136 -147 187 -24 22 -52 47 -61 56 -29 28 -183 117 -240 139 -30
11 -69 27 -87 35 -17 8 -40 15 -51 15 -12 0 -32 4 -47 10 -48 18 -79 21 -230
24 -94 2 -172 -2 -210 -10z m1159 -2010 c3 -8 2 -12 -4 -9 -6 3 -10 10 -10 16
0 14 7 11 14 -7z m-894 -34 c0 -5 -2 -10 -4 -10 -3 0 -8 5 -11 10 -3 6 -1 10
4 10 6 0 11 -4 11 -10z"/>
</g>
</svg>
